/* XPM */
static char *_620157498854[] = {
/* columns rows colors chars-per-pixel */
"64 64 18 1 ",
"  c black",
". c #010000",
"X c #000100",
"o c #010101",
"O c #020001",
"+ c #000002",
"@ c #010103",
"# c gray34",
"$ c #585858",
"% c gray35",
"& c #FD0000",
"* c #FD0100",
"= c #FE0000",
"- c #FF0100",
"; c #FF0101",
": c #FEFEFE",
"> c #FEFFFF",
", c white",
/* pixels */
"                                                                ",
"                                                                ",
"                                                                ",
"                                                                ",
"                                                                ",
"                                                                ",
"                                                                ",
"                                                                ",
"                                                                ",
"                                                                ",
"                                                                ",
"                                                                ",
"                                                                ",
"                                                                ",
"                                                                ",
"                                                                ",
"                            ;;  ;;                              ",
"                            ;;  ;;  @    @                      ",
"                              ;;                                ",
"                              ;;                                ",
"                            ;;  ;;                              ",
"                            ;;  ;;                              ",
"                                              ;;                ",
"                                              ;;                ",
"                                                ;;              ",
"                                                ;;              ",
"                                                                ",
"                                                   @            ",
"                                                                ",
"                                                                ",
"                    ;;                                          ",
"                    ;;                                          ",
"                      ;;                                        ",
"                      ;;                                        ",
"                                                                ",
"                                                                ",
"                            ,,,,,,,,,,,,                        ",
"                            ,,,,,,,,,,,,                        ",
"                 @        ,,$$$$$$$$$$$$,,                      ",
"                @         ,,$$$$$$$$$$$$,,                      ",
"                            ,,$$$$$$$#,,                        ",
"                            ,,$$$$$$$$,,                        ",
"                              ,,    ,,                          ",
"                              ,,    ,,                          ",
"                              ,,    ,,                          ",
"                              ,,    ,,                          ",
"                              ,,    ,,                          ",
"                              ,,    ,,                          ",
"                            ,,,,    ,,,,                        ",
"                            ,,,,    ,,,,                        ",
"                          ,,            ,,                      ",
"                          ,,            ,,                      ",
"                        ,,;&            ;;,,                    ",
"                        ,,&;            ;;,,                    ",
"                        ,,;;;;;&    &;&;&;,,                    ",
"                        ,,;;;;&;    ;&;&;&,,                    ",
"                        ,,;&&;&;;;;&;&;&;&,,                    ",
"                        ,,&;;&;&;;&;&;&;&;,,                    ",
"                        ,,&&;&&;;&;&;&;&;;,,                    ",
"                        ,,;&&;;;&;&;&;&;;;,,                    ",
"                          ,,;&;&;&;&;&;&,,                      ",
"                          ,,&;&;&;&;&;&;,,                      ",
"                            ,,,,,,,,,,,,                        ",
"                            ,,,,,,,,,,,,                        "
};
